<svg width="393" height="852" viewBox="0 0 393 852" fill="none" xmlns="http://www.w3.org/2000/svg">
  <rect width="393" height="852" fill="#EDEDED"/>

  <!-- Header -->
  <rect x="28" y="62" width="84" height="38" rx="2" fill="#FFFFFF" stroke="#111111" stroke-width="1.8"/>
  <text x="70" y="87" text-anchor="middle" font-family="Arial, sans-serif" font-size="18" font-weight="700" fill="#111111">Letras</text>

  <g transform="translate(336,66)">
    <path d="M10 3C6.1 3 3 6.1 3 10V15H1V17H19V15H17V10C17 6.1 13.9 3 10 3Z" fill="#111111"/>
    <circle cx="16.5" cy="2" r="5.5" fill="#111111"/>
    <text x="16.5" y="4.9" text-anchor="middle" font-family="Arial, sans-serif" font-size="6" font-weight="700" fill="#FFFFFF">1</text>
  </g>

  <!-- Title -->
  <text x="28" y="156" font-family="Arial, sans-serif" font-size="28" font-weight="700" fill="#111111">Acessar Educador</text>
  <text x="28" y="183" font-family="Arial, sans-serif" font-size="15" fill="#333333">Entre na sua conta ou crie um novo acesso.</text>

  <!-- Tabs -->
  <rect x="28" y="214" width="337" height="48" rx="6" fill="#DCDCDC"/>
  <rect x="32" y="218" width="165" height="40" rx="5" fill="#FFFFFF"/>
  <text x="114" y="243" text-anchor="middle" font-family="Arial, sans-serif" font-size="14" font-weight="700" fill="#111111">ENTRAR</text>
  <text x="280" y="243" text-anchor="middle" font-family="Arial, sans-serif" font-size="14" font-weight="600" fill="#5A5A5A">CADASTRAR</text>

  <!-- Fields -->
  <text x="28" y="302" font-family="Arial, sans-serif" font-size="15" font-weight="500" fill="#111111">CPF *</text>
  <rect x="28" y="314" width="337" height="42" rx="2" fill="#E4E4E4"/>
  <text x="40" y="341" font-family="Arial, sans-serif" font-size="13" fill="#777777">Somente números (11 dígitos)</text>

  <text x="28" y="397" font-family="Arial, sans-serif" font-size="15" font-weight="500" fill="#111111">Senha *</text>
  <rect x="28" y="409" width="337" height="42" rx="2" fill="#E4E4E4"/>
  <circle cx="45" cy="430" r="2.8" fill="#6D6D6D"/>
  <circle cx="56" cy="430" r="2.8" fill="#6D6D6D"/>
  <circle cx="67" cy="430" r="2.8" fill="#6D6D6D"/>
  <circle cx="78" cy="430" r="2.8" fill="#6D6D6D"/>
  <circle cx="89" cy="430" r="2.8" fill="#6D6D6D"/>
  <circle cx="100" cy="430" r="2.8" fill="#6D6D6D"/>

  <!-- Helpers -->
  <rect x="28" y="470" width="16" height="16" rx="2" fill="#FFFFFF" stroke="#9A9A9A"/>
  <text x="52" y="483" font-family="Arial, sans-serif" font-size="13" fill="#333333">Lembrar acesso</text>
  <text x="365" y="483" text-anchor="end" font-family="Arial, sans-serif" font-size="13" fill="#111111">Esqueci senha</text>

  <!-- Buttons -->
  <rect x="28" y="520" width="337" height="50" rx="5" fill="#111111"/>
  <text x="196.5" y="551" text-anchor="middle" font-family="Arial, sans-serif" font-size="16" font-weight="700" fill="#FFFFFF">ENTRAR</text>

  <rect x="28" y="585" width="337" height="50" rx="5" fill="#F4F4F4" stroke="#111111" stroke-width="2"/>
  <text x="196.5" y="616" text-anchor="middle" font-family="Arial, sans-serif" font-size="15" font-weight="700" fill="#111111">CRIAR CONTA</text>

  <text x="196.5" y="668" text-anchor="middle" font-family="Arial, sans-serif" font-size="13" fill="#666666">Depois seguimos para o onboarding.</text>

  <!-- Bottom menu strip -->
  <rect x="0" y="795" width="393" height="57" fill="#E3E3E3"/>
  <line x1="0" y1="795.5" x2="393" y2="795.5" stroke="#D1D1D1"/>
</svg>
