<!DOCTYPE svg PUBLIC "-//W3C//DTD SVG 1.1//EN" "http://www.w3.org/Graphics/SVG/1.1/DTD/svg11.dtd">
<svg width="800px" height="800px" viewBox="0 0 24 24" version="1.1" xmlns="http://www.w3.org/2000/svg" xmlns:xlink="http://www.w3.org/1999/xlink" fill="#000000">
<g id="Page-1" stroke="none" stroke-width="1" fill="none" fill-rule="evenodd">
<g id="ic-monitor" fill-rule="nonzero" fill="#000000">
<path d="M3,4.99539757 L3,4.99539757 L3,13.0046024 C3,13.5443356 3.44475929,14 3.99339768,14 L20.0066023,14 C20.5550537,14 21,13.5543453 21,13.0046024 L21,4.99539757 C21,4.4556644 20.5552407,4 20.0066023,4 L3.99339768,4 C3.44494629,4 3,4.44565467 3,4.99539757 L3,4.99539757 Z M1,4.99539757 C1,3.34199121 2.33946912,2 3.99339768,2 L20.0066023,2 C21.6604031,2 23,3.35161751 23,4.99539757 L23,13.0046024 C23,14.6580088 21.6605309,16 20.0066023,16 L3.99339768,16 C2.33959693,16 1,14.6483825 1,13.0046024 L1,4.99539757 Z M11,16 L13,16 L13,20 L11,20 L11,16 Z M7,21 C7,20.4477153 7.4556644,20 7.99539757,20 L16.0046024,20 C16.5543453,20 17,20.4438648 17,21 C17,21.5522847 16.5443356,22 16.0046024,22 L7.99539757,22 C7.44565467,22 7,21.5561352 7,21 Z" id="Combined-Shape"/>
</g>
</g>
</svg>
